<?xml version="1.0" encoding="UTF-8" standalone="no"?>
<!-- Created with Inkscape (http://www.inkscape.org/) -->

<svg
   width="115mm"
   height="115mm"
   viewBox="0 0 115 115"
   version="1.1"
   id="svg5"
   xmlns="http://www.w3.org/2000/svg"
   xmlns:svg="http://www.w3.org/2000/svg">
  <defs
     id="defs2" />
  <g
     id="layer1">
    <path
       id="path846"
       style="fill:#333333;stroke-width:0.886674"
       d="m 57.499458,1.0040529 a 56.49597,56.496278 0 0 0 -4.221936,0.1581891 56.49597,56.496278 0 0 0 -4.19842,0.4727827 56.49597,56.496278 0 0 0 -4.15057,0.7850518 56.49597,56.496278 0 0 0 -4.080828,1.0939793 56.49597,56.496278 0 0 0 -3.988376,1.394899 56.49597,56.496278 0 0 0 -3.872404,1.690087 56.49597,56.496278 0 0 0 -3.735349,1.9739122 56.49597,56.496278 0 0 0 -3.577212,2.248041 56.49597,56.496278 0 0 0 -3.399609,2.50835 56.49597,56.496278 0 0 0 -3.201727,2.756521 56.49597,56.496278 0 0 0 -2.987631,2.986849 56.49597,56.496278 0 0 0 -2.755693,3.202564 56.49597,56.496278 0 0 0 -2.509158,3.39963 56.49597,56.496278 0 0 0 -2.2480264,3.577208 56.49597,56.496278 0 0 0 -1.9739103,3.735381 56.49597,56.496278 0 0 0 -1.6892617,3.872429 56.49597,56.496278 0 0 0 -1.3956891,3.987583 56.49597,56.496278 0 0 0 -1.0931933,4.08086 56.49597,56.496278 0 0 0 -0.7858352,4.151389 56.49597,56.496278 0 0 0 -0.4727978,4.198437 56.49597,56.496278 0 0 0 -0.1581406,4.221969 56.49597,56.496278 0 0 0 0.1581406,4.221953 56.49597,56.496278 0 0 0 0.4727978,4.198452 56.49597,56.496278 0 0 0 0.7858352,4.151406 56.49597,56.496278 0 0 0 1.0931933,4.080844 56.49597,56.496278 0 0 0 1.3956891,3.9876 56.49597,56.496278 0 0 0 1.6892617,3.872429 56.49597,56.496278 0 0 0 1.9739103,3.735348 56.49597,56.496278 0 0 0 2.2480264,3.577241 56.49597,56.496278 0 0 0 2.509158,3.399627 56.49597,56.496278 0 0 0 2.755693,3.202565 56.49597,56.496278 0 0 0 2.987631,2.987635 56.49597,56.496278 0 0 0 3.201727,2.755695 56.49597,56.496278 0 0 0 3.399609,2.50837 56.49597,56.496278 0 0 0 3.577212,2.24804 56.49597,56.496278 0 0 0 3.735349,1.97393 56.49597,56.496278 0 0 0 3.872404,1.69007 56.49597,56.496278 0 0 0 3.988376,1.39487 56.49597,56.496278 0 0 0 4.080828,1.09402 56.49597,56.496278 0 0 0 4.15057,0.78503 56.49597,56.496278 0 0 0 4.19842,0.47281 56.49597,56.496278 0 0 0 4.221936,0.15819 56.49597,56.496278 0 0 0 4.221936,-0.15819 56.49597,56.496278 0 0 0 4.19842,-0.47281 56.49597,56.496278 0 0 0 4.151374,-0.78503 56.49597,56.496278 0 0 0 4.080842,-1.09402 56.49597,56.496278 0 0 0 3.98837,-1.39487 56.49597,56.496278 0 0 0 3.872413,-1.69007 56.49597,56.496278 0 0 0 3.735345,-1.97393 56.49597,56.496278 0 0 0 3.577209,-2.24804 56.49597,56.496278 0 0 0 3.398801,-2.50837 56.49597,56.496278 0 0 0 3.202523,-2.755695 56.49597,56.496278 0 0 0 2.987638,-2.987635 56.49597,56.496278 0 0 0 2.755681,-3.202565 56.49597,56.496278 0 0 0 2.50918,-3.399627 56.49597,56.496278 0 0 0 2.24722,-3.577241 56.49597,56.496278 0 0 0 1.97471,-3.735348 56.49597,56.496278 0 0 0 1.68927,-3.872429 56.49597,56.496278 0 0 0 1.39569,-3.9876 56.49597,56.496278 0 0 0 1.09319,-4.080844 56.49597,56.496278 0 0 0 0.78584,-4.151406 56.49597,56.496278 0 0 0 0.47278,-4.198452 56.49597,56.496278 0 0 0 0.15819,-4.221953 56.49597,56.496278 0 0 0 -0.0185,-1.4549 56.49597,56.496278 0 0 0 -0.0569,-1.453279 56.49597,56.496278 0 0 0 -0.0933,-1.451657 56.49597,56.496278 0 0 0 -0.13133,-1.449217 56.49597,56.496278 0 0 0 -0.16788,-1.445156 56.49597,56.496278 0 0 0 -0.20517,-1.44031 56.49597,56.496278 0 0 0 -0.24248,-1.433807 56.49597,56.496278 0 0 0 -0.27898,-1.428126 56.49597,56.496278 0 0 0 -0.31627,-1.420036 56.49597,56.496278 0 0 0 -0.35197,-1.411095 56.49597,56.496278 0 0 0 -0.38845,-1.402186 56.49597,56.496278 0 0 0 -0.42495,-1.391641 56.49597,56.496278 0 0 0 -0.45983,-1.380292 56.49597,56.496278 0 0 0 -0.49632,-1.367322 56.49597,56.496278 0 0 0 -0.53039,-1.354336 56.49597,56.496278 0 0 0 -0.56524,-1.340533 56.49597,56.496278 0 0 0 -0.60012,-1.325958 56.49597,56.496278 0 0 0 -0.63338,-1.308909 56.49597,56.496278 0 0 0 -0.66663,-1.293518 56.49597,56.496278 0 0 0 -0.70068,-1.274865 56.49597,56.496278 0 0 0 -0.73229,-1.257016 56.49597,56.496278 0 0 0 -0.76558,-1.236743 56.49597,56.496278 0 0 0 -0.79637,-1.218091 56.49597,56.496278 0 0 0 -0.82719,-1.196196 56.49597,56.496278 0 0 0 -0.85801,-1.174302 56.49597,56.496278 0 0 0 -0.88803,-1.152391 56.49597,56.496278 0 0 0 -0.91801,-1.128893 56.49597,56.496278 0 0 0 -0.946421,-1.10536 56.49597,56.496278 0 0 0 -0.97398,-1.08024 A 56.49597,56.496278 0 0 0 97.959894,18.068719 56.49597,56.496278 0 0 0 96.93076,17.040406 56.49597,56.496278 0 0 0 95.875676,16.038034 56.49597,56.496278 0 0 0 94.795466,15.064039 56.49597,56.496278 0 0 0 93.690988,14.117638 56.49597,56.496278 0 0 0 92.56211,13.200419 56.49597,56.496278 0 0 0 91.409724,12.312396 56.49597,56.496278 0 0 0 90.234616,11.454375 56.49597,56.496278 0 0 0 89.038432,10.62637 56.49597,56.496278 0 0 0 87.821145,9.8299859 56.49597,56.496278 0 0 0 86.583604,9.0652243 56.49597,56.496278 0 0 0 85.326604,8.3320994 56.49597,56.496278 0 0 0 84.051737,7.6322192 56.49597,56.496278 0 0 0 82.759037,6.9647946 56.49597,56.496278 0 0 0 81.44931,6.3314141 56.49597,56.496278 0 0 0 80.124192,5.7320953 56.49597,56.496278 0 0 0 78.783655,5.1660213 56.49597,56.496278 0 0 0 77.429317,4.6356601 56.49597,56.496278 0 0 0 76.061196,4.1401478 56.49597,56.496278 0 0 0 74.680938,3.6794996 56.49597,56.496278 0 0 0 73.290114,3.2553679 56.49597,56.496278 0 0 0 71.887928,2.8669204 56.49597,56.496278 0 0 0 70.476015,2.5141222 56.49597,56.496278 0 0 0 69.055995,2.1986604 56.49597,56.496278 0 0 0 67.628689,1.9188817 56.49597,56.496278 0 0 0 66.194078,1.6771928 56.49597,56.496278 0 0 0 64.753785,1.4712179 56.49597,56.496278 0 0 0 63.308629,1.3033347 56.49597,56.496278 0 0 0 61.860231,1.1728208 56.49597,56.496278 0 0 0 60.408573,1.0786612 56.49597,56.496278 0 0 0 58.954492,1.0226478 56.49597,56.496278 0 0 0 57.499609,1.0039801 Z" />
    <text
       xml:space="preserve"
       style="font-style:normal;font-weight:normal;font-size:7.752px;line-height:1.25;font-family:sans-serif;fill:#ff0000;fill-opacity:1;stroke:none;stroke-width:0.1938"
       x="55.145382"
       y="33.699078"
       id="text10308"
       transform="rotate(1.0085952)"><tspan
         id="tspan10306"
         style="fill:#ff0000;stroke-width:0.1938"
         x="55.145382"
         y="33.699078">N</tspan></text>
    <text
       xml:space="preserve"
       style="font-style:normal;font-weight:normal;font-size:5.18398px;line-height:1.25;font-family:sans-serif;opacity:0.814;fill:#ffffff;fill-opacity:1;stroke:none;stroke-width:0.1296"
       x="54.700447"
       y="-107.7485"
       id="text35428-6"
       transform="rotate(89.982611)"><tspan
         style="font-style:normal;font-variant:normal;font-weight:normal;font-stretch:normal;font-family:Arial;-inkscape-font-specification:Arial;fill:#ffffff;stroke-width:0.1296"
         x="54.700447"
         y="-107.7485"
         id="tspan45681">90</tspan></text>
    <text
       xml:space="preserve"
       style="font-style:normal;font-weight:normal;font-size:5.18398px;line-height:1.25;font-family:sans-serif;opacity:0.814;fill:#ffffff;fill-opacity:1;stroke:none;stroke-width:0.1296"
       x="-64.316284"
       y="-106.5696"
       id="text35428-96"
       transform="rotate(-178.77404)"><tspan
         id="tspan35426-3"
         style="font-style:normal;font-variant:normal;font-weight:normal;font-stretch:normal;font-family:Arial;-inkscape-font-specification:Arial;fill:#ffffff;stroke-width:0.1296"
         x="-64.316284"
         y="-106.5696">180</tspan></text>
    <text
       xml:space="preserve"
       style="font-style:normal;font-weight:normal;font-size:5.18398px;line-height:1.25;font-family:sans-serif;opacity:0.814;fill:#ffffff;fill-opacity:1;stroke:none;stroke-width:0.1296"
       x="100.04199"
       y="25.983183"
       id="text35428-69"
       transform="rotate(45.004763)"><tspan
         id="tspan35426-9"
         style="font-style:normal;font-variant:normal;font-weight:normal;font-stretch:normal;font-family:Arial;-inkscape-font-specification:Arial;fill:#ffffff;stroke-width:0.1296"
         x="100.04199"
         y="25.983183" /></text>
    <text
       xml:space="preserve"
       style="font-style:normal;font-weight:normal;font-size:5.18398px;line-height:1.25;font-family:sans-serif;opacity:0.814;fill:#ffffff;fill-opacity:1;stroke:none;stroke-width:0.1296"
       x="56.082195"
       y="7.102654"
       id="text35428-5"
       transform="rotate(0.08034256)"><tspan
         style="font-style:normal;font-variant:normal;font-weight:normal;font-stretch:normal;font-family:Arial;-inkscape-font-specification:Arial;fill:#ffffff;stroke-width:0.1296"
         x="56.082195"
         y="7.102654"
         id="tspan54224">0</tspan></text>
    <text
       xml:space="preserve"
       style="font-style:normal;font-weight:normal;font-size:5.18398px;line-height:1.25;font-family:sans-serif;opacity:0.814;fill:#ffffff;fill-opacity:1;stroke:none;stroke-width:0.1296"
       x="-61.464497"
       y="7.5047665"
       id="text35428-0-3"
       transform="rotate(-89.70509)"><tspan
         style="font-style:normal;font-variant:normal;font-weight:normal;font-stretch:normal;font-family:Arial;-inkscape-font-specification:Arial;fill:#ffffff;stroke-width:0.1296"
         x="-61.464497"
         y="7.5047665"
         id="tspan68327">270</tspan></text>
  </g>
</svg>
